<svg width="724" height="671" viewBox="0 0 724 671" fill="none" xmlns="http://www.w3.org/2000/svg">
<path fill-rule="evenodd" clip-rule="evenodd" d="M390.94 18.1488C452.782 13.8024 520.415 -17.445 573.134 15.1762C625.854 47.7982 632.386 120.669 651.784 179.553C669.158 232.295 679.521 284.745 680.23 340.27C681.054 404.843 689.586 473.258 656.237 528.558C620.691 587.502 559.206 627.573 493.885 649.275C427.235 671.419 350.314 682.426 287.464 651.081C226.734 620.793 213.346 542.228 171.74 488.614C133.103 438.826 69.4516 407.939 51.8266 347.434C33.3038 283.846 41.881 211.827 74.2876 154.066C105.718 98.0464 165.466 65.0157 224.492 39.6794C276.964 17.1568 333.979 22.1521 390.94 18.1488Z" fill="#FF934F"/>
<path fill-rule="evenodd" clip-rule="evenodd" d="M359.53 0.0857408C423.68 -2.16744 479.101 40.4177 531.739 77.1523C582.671 112.696 626.6 155.272 658.373 208.638C693.041 266.868 732.294 330.246 722.333 397.278C712.382 464.246 657.627 514.786 606.316 558.956C560.205 598.649 504.717 624.629 444.956 636.05C389.068 646.731 334.09 633 278.336 621.637C217.379 609.212 152.367 605.651 103.979 566.551C51.3118 523.993 2.74073 464.456 0.0869444 396.795C-2.53409 329.969 54.7063 278.75 90.4745 222.241C121.284 173.568 150.504 125.66 194.924 88.9826C244.004 48.4579 295.921 2.31994 359.53 0.0857408Z" fill="#F7FF58"/>
</svg>
