<svg xmlns="http://www.w3.org/2000/svg" xmlns:xlink="http://www.w3.org/1999/xlink" width="500" zoomAndPan="magnify" viewBox="0 0 375 374.999991" height="500" preserveAspectRatio="xMidYMid meet" version="1.0"><defs><g/><clipPath id="20f22e4f1a"><path d="M 148.886719 109 L 176 109 L 176 148 L 148.886719 148 Z M 148.886719 109 " clip-rule="nonzero"/></clipPath><clipPath id="7506bb261d"><path d="M 198 110 L 223.886719 110 L 223.886719 147 L 198 147 Z M 198 110 " clip-rule="nonzero"/></clipPath><clipPath id="8e5c32aece"><path d="M 197 109 L 223.886719 109 L 223.886719 148 L 197 148 Z M 197 109 " clip-rule="nonzero"/></clipPath><clipPath id="56dbfe7139"><path d="M 173 99.277344 L 200 99.277344 L 200 157.777344 L 173 157.777344 Z M 173 99.277344 " clip-rule="nonzero"/></clipPath></defs><rect x="-37.5" width="450" fill="#ffffff" y="-37.499999" height="449.999989" fill-opacity="1"/><rect x="-37.5" width="450" fill="#ffffff" y="-37.499999" height="449.999989" fill-opacity="1"/><rect x="-37.5" width="450" fill="#ff934f" y="-37.499999" height="449.999989" fill-opacity="1"/><path fill="#f7ff58" d="M 172.546875 146.972656 C 172.132812 146.972656 171.722656 146.832031 171.398438 146.574219 L 150.421875 129.992188 C 149.96875 129.636719 149.710938 129.101562 149.710938 128.527344 C 149.710938 127.953125 149.96875 127.417969 150.421875 127.058594 L 171.398438 110.480469 C 171.722656 110.21875 172.132812 110.082031 172.546875 110.082031 C 173.121094 110.082031 173.65625 110.335938 174.003906 110.792969 C 174.3125 111.183594 174.453125 111.671875 174.390625 112.164062 C 174.335938 112.660156 174.085938 113.105469 173.695312 113.410156 L 154.578125 128.527344 L 173.695312 143.636719 C 174.085938 143.949219 174.335938 144.390625 174.390625 144.882812 C 174.453125 145.378906 174.3125 145.867188 174.003906 146.261719 C 173.65625 146.710938 173.121094 146.972656 172.546875 146.972656 " fill-opacity="1" fill-rule="nonzero"/><g clip-path="url(#20f22e4f1a)"><path fill="#5e565a" d="M 172.546875 109.285156 C 171.953125 109.285156 171.375 109.484375 170.910156 109.855469 L 149.933594 126.433594 C 149.289062 126.945312 148.921875 127.707031 148.921875 128.527344 C 148.921875 129.347656 149.289062 130.109375 149.933594 130.617188 L 170.910156 147.199219 C 171.371094 147.566406 171.953125 147.769531 172.546875 147.769531 C 173.367188 147.769531 174.125 147.394531 174.628906 146.75 C 175.070312 146.195312 175.261719 145.496094 175.179688 144.792969 C 175.09375 144.085938 174.742188 143.453125 174.1875 143.015625 L 155.855469 128.527344 L 174.1875 114.039062 C 174.742188 113.597656 175.09375 112.96875 175.179688 112.261719 C 175.261719 111.554688 175.070312 110.859375 174.628906 110.300781 C 174.125 109.652344 173.363281 109.285156 172.546875 109.285156 Z M 172.546875 110.875 C 172.863281 110.875 173.175781 111.015625 173.386719 111.28125 C 173.753906 111.75 173.671875 112.421875 173.207031 112.789062 L 153.296875 128.527344 L 173.207031 144.265625 C 173.671875 144.628906 173.753906 145.304688 173.386719 145.769531 C 173.175781 146.039062 172.863281 146.179688 172.546875 146.179688 C 172.316406 146.179688 172.085938 146.105469 171.886719 145.949219 L 150.910156 129.371094 C 150.652344 129.164062 150.503906 128.855469 150.503906 128.527344 C 150.503906 128.195312 150.652344 127.886719 150.910156 127.683594 L 171.886719 111.105469 C 172.082031 110.949219 172.316406 110.875 172.546875 110.875 " fill-opacity="1" fill-rule="nonzero"/></g><g clip-path="url(#7506bb261d)"><path fill="#f7ff58" d="M 200.226562 146.972656 C 199.652344 146.972656 199.121094 146.710938 198.761719 146.261719 C 198.128906 145.453125 198.269531 144.277344 199.074219 143.636719 L 218.195312 128.527344 L 199.074219 113.410156 C 198.269531 112.777344 198.128906 111.601562 198.761719 110.792969 C 199.121094 110.335938 199.652344 110.082031 200.226562 110.082031 C 200.640625 110.082031 201.046875 110.21875 201.375 110.480469 L 222.351562 127.058594 C 222.800781 127.417969 223.058594 127.953125 223.058594 128.527344 C 223.058594 129.101562 222.800781 129.636719 222.347656 129.992188 L 201.375 146.574219 C 201.046875 146.832031 200.640625 146.972656 200.226562 146.972656 " fill-opacity="1" fill-rule="nonzero"/></g><g clip-path="url(#8e5c32aece)"><path fill="#5e565a" d="M 200.226562 109.285156 C 199.410156 109.285156 198.648438 109.652344 198.140625 110.300781 C 197.238281 111.453125 197.4375 113.128906 198.585938 114.039062 L 216.914062 128.527344 L 198.585938 143.015625 C 197.4375 143.921875 197.238281 145.601562 198.140625 146.75 C 198.648438 147.394531 199.410156 147.769531 200.226562 147.769531 C 200.816406 147.769531 201.394531 147.566406 201.859375 147.199219 L 222.839844 130.617188 C 223.480469 130.109375 223.847656 129.347656 223.847656 128.527344 C 223.847656 127.707031 223.480469 126.945312 222.84375 126.433594 L 201.863281 109.855469 C 201.398438 109.484375 200.816406 109.285156 200.226562 109.285156 Z M 200.226562 110.875 C 200.457031 110.875 200.691406 110.949219 200.882812 111.105469 L 221.863281 127.683594 C 222.117188 127.886719 222.265625 128.195312 222.265625 128.527344 C 222.265625 128.855469 222.117188 129.164062 221.863281 129.371094 L 200.882812 145.949219 C 200.691406 146.105469 200.457031 146.179688 200.226562 146.179688 C 199.910156 146.179688 199.59375 146.039062 199.386719 145.769531 C 199.023438 145.304688 199.101562 144.628906 199.5625 144.265625 L 219.476562 128.527344 L 199.5625 112.789062 C 199.101562 112.421875 199.023438 111.75 199.386719 111.28125 C 199.59375 111.015625 199.910156 110.875 200.226562 110.875 " fill-opacity="1" fill-rule="nonzero"/></g><path fill="#f7ff58" d="M 175.960938 156.980469 C 175.730469 156.980469 175.503906 156.933594 175.289062 156.851562 C 174.828125 156.671875 174.460938 156.320312 174.261719 155.867188 C 174.058594 155.40625 174.050781 154.902344 174.226562 154.4375 L 194.714844 101.265625 C 194.992188 100.554688 195.6875 100.074219 196.445312 100.074219 C 196.675781 100.074219 196.90625 100.121094 197.121094 100.203125 C 198.074219 100.574219 198.550781 101.65625 198.179688 102.617188 L 177.695312 155.785156 C 177.421875 156.5 176.722656 156.980469 175.960938 156.980469 " fill-opacity="1" fill-rule="nonzero"/><g clip-path="url(#56dbfe7139)"><path fill="#5e565a" d="M 196.445312 99.28125 C 195.359375 99.28125 194.367188 99.964844 193.976562 100.980469 L 173.488281 154.148438 C 173.238281 154.8125 173.253906 155.535156 173.539062 156.1875 C 173.824219 156.835938 174.34375 157.339844 175.003906 157.59375 C 175.3125 157.714844 175.632812 157.773438 175.960938 157.773438 C 177.046875 157.773438 178.039062 157.089844 178.433594 156.074219 L 198.917969 102.90625 C 199.445312 101.535156 198.765625 99.988281 197.402344 99.460938 C 197.097656 99.339844 196.773438 99.28125 196.445312 99.28125 Z M 196.445312 100.871094 C 196.574219 100.871094 196.707031 100.894531 196.832031 100.941406 C 197.382812 101.15625 197.65625 101.777344 197.441406 102.328125 L 176.957031 155.496094 C 176.792969 155.921875 176.390625 156.183594 175.960938 156.183594 C 175.832031 156.183594 175.703125 156.160156 175.574219 156.109375 C 175.023438 155.898438 174.753906 155.273438 174.96875 154.722656 L 195.453125 101.554688 C 195.617188 101.128906 196.019531 100.871094 196.445312 100.871094 " fill-opacity="1" fill-rule="nonzero"/></g><g fill="#efecca" fill-opacity="1"><g transform="translate(50.204787, 214.515022)"><g><path d="M 10.859375 0 L 10.859375 -15.082031 L 21.71875 -15.082031 C 32.167969 -15.082031 36.492188 -21.308594 36.492188 -28.667969 L 36.492188 -28.71875 C 36.492188 -35.464844 32.632812 -41.742188 21.71875 -41.742188 L 2.832031 -41.742188 L 2.832031 0 Z M 10.859375 -34.226562 L 20.898438 -34.226562 C 25.632812 -34.226562 28.257812 -32.324219 28.257812 -28.152344 L 28.257812 -28.101562 C 28.257812 -23.984375 25.582031 -22.183594 20.898438 -22.183594 L 10.859375 -22.183594 Z M 10.859375 -34.226562 "/></g></g></g><g fill="#efecca" fill-opacity="1"><g transform="translate(86.534866, 214.515022)"><g><path d="M 32.683594 -13.792969 C 32.683594 -24.34375 26.917969 -30.726562 17.449219 -30.726562 C 8.082031 -30.726562 2.058594 -24.242188 2.058594 -15.03125 L 2.058594 -14.976562 C 2.058594 -5.609375 8.492188 0.773438 18.425781 0.773438 C 24.191406 0.773438 28.257812 -1.03125 31.242188 -2.882812 L 27.691406 -9.214844 C 25.527344 -7.667969 22.390625 -6.382812 18.785156 -6.382812 C 14.308594 -6.382812 11.375 -9.265625 10.550781 -13.074219 L 32.683594 -13.074219 Z M 17.398438 -24.089844 C 21.359375 -24.089844 23.726562 -21.515625 24.34375 -18.117188 L 10.601562 -18.117188 C 11.375 -21.515625 13.84375 -24.089844 17.398438 -24.089844 Z M 17.398438 -24.089844 "/></g></g></g><g fill="#efecca" fill-opacity="1"><g transform="translate(119.365675, 214.515022)"><g><path d="M 18.476562 0.824219 C 23.984375 0.824219 27.691406 0 31.910156 -2.058594 L 31.910156 -41.742188 L 23.777344 -41.742188 L 23.777344 -29.957031 C 21.976562 -30.367188 20.074219 -30.726562 18.167969 -30.726562 C 8.082031 -30.726562 2.109375 -24.089844 2.109375 -15.03125 L 2.109375 -14.925781 C 2.109375 -5.867188 8.390625 0.824219 18.476562 0.824219 Z M 18.476562 -6.484375 C 13.125 -6.484375 10.292969 -10.191406 10.292969 -14.925781 L 10.292969 -15.03125 C 10.292969 -19.765625 13.125 -23.417969 18.476562 -23.417969 C 20.277344 -23.417969 22.183594 -23.007812 23.777344 -22.648438 L 23.777344 -7.15625 C 22.183594 -6.742188 20.433594 -6.484375 18.476562 -6.484375 Z M 18.476562 -6.484375 "/></g></g></g><g fill="#efecca" fill-opacity="1"><g transform="translate(152.145022, 214.515022)"><g><path d="M 10.964844 0 L 10.964844 -21.617188 C 11.632812 -21.773438 14.976562 -22.027344 16.214844 -22.027344 L 20.640625 -22.027344 L 20.640625 -29.542969 L 14.875 -29.542969 C 12.199219 -29.542969 7.101562 -29.339844 2.78125 -28.410156 L 2.78125 0 Z M 10.964844 0 "/></g></g></g><g fill="#efecca" fill-opacity="1"><g transform="translate(172.779894, 214.515022)"><g><path d="M 18.476562 0.824219 C 28.152344 0.824219 34.898438 -5.867188 34.898438 -14.976562 L 34.898438 -15.03125 C 34.898438 -24.089844 28.152344 -30.726562 18.476562 -30.726562 C 8.800781 -30.726562 2.109375 -24.089844 2.109375 -15.03125 L 2.109375 -14.976562 C 2.109375 -5.867188 8.851562 0.824219 18.476562 0.824219 Z M 18.476562 -6.484375 C 13.589844 -6.484375 10.292969 -10.191406 10.292969 -14.976562 L 10.292969 -15.082031 C 10.292969 -19.816406 13.535156 -23.417969 18.476562 -23.417969 C 23.46875 -23.417969 26.660156 -19.816406 26.660156 -15.082031 L 26.660156 -14.976562 C 26.660156 -10.191406 23.417969 -6.484375 18.476562 -6.484375 Z M 18.476562 -6.484375 "/></g></g></g><g fill="#efecca" fill-opacity="1"><g transform="translate(207.772002, 214.515022)"><g><path d="M 10.910156 0 L 10.910156 -17.5 L 29.027344 -17.5 L 29.027344 0 L 37.109375 0 L 37.109375 -41.742188 L 29.027344 -41.742188 L 29.027344 -25.066406 L 10.910156 -25.066406 L 10.910156 -41.742188 L 2.78125 -41.742188 L 2.78125 0 Z M 10.910156 0 "/></g></g></g><g fill="#efecca" fill-opacity="1"><g transform="translate(245.748797, 214.515022)"><g><path d="M 32.683594 -13.792969 C 32.683594 -24.34375 26.917969 -30.726562 17.449219 -30.726562 C 8.082031 -30.726562 2.058594 -24.242188 2.058594 -15.03125 L 2.058594 -14.976562 C 2.058594 -5.609375 8.492188 0.773438 18.425781 0.773438 C 24.191406 0.773438 28.257812 -1.03125 31.242188 -2.882812 L 27.691406 -9.214844 C 25.527344 -7.667969 22.390625 -6.382812 18.785156 -6.382812 C 14.308594 -6.382812 11.375 -9.265625 10.550781 -13.074219 L 32.683594 -13.074219 Z M 17.398438 -24.089844 C 21.359375 -24.089844 23.726562 -21.515625 24.34375 -18.117188 L 10.601562 -18.117188 C 11.375 -21.515625 13.84375 -24.089844 17.398438 -24.089844 Z M 17.398438 -24.089844 "/></g></g></g><g fill="#efecca" fill-opacity="1"><g transform="translate(278.579613, 214.515022)"><g><path d="M 10.964844 0 L 10.964844 -22.902344 C 12.867188 -23.214844 14.71875 -23.417969 16.160156 -23.417969 C 19.96875 -23.417969 22.027344 -22.027344 22.027344 -18.324219 L 22.027344 0 L 30.160156 0 L 30.160156 -19.300781 C 30.160156 -28.152344 23.832031 -30.726562 16.523438 -30.726562 C 13.535156 -30.726562 7.71875 -30.058594 2.78125 -29.183594 L 2.78125 0 Z M 10.964844 0 "/></g></g></g><g fill="#efecca" fill-opacity="1"><g transform="translate(309.609347, 214.515022)"><g><path d="M 7.566406 0.566406 C 10.191406 0.566406 12.351562 -0.667969 12.351562 -3.242188 C 12.351562 -5.558594 10.398438 -7 7.566406 -7 C 4.785156 -7 2.78125 -5.558594 2.78125 -3.242188 C 2.78125 -0.667969 4.941406 0.566406 7.566406 0.566406 Z M 7.566406 0.566406 "/></g></g></g><g fill="#f7ff58" fill-opacity="1"><g transform="translate(94.776533, 250.77757)"><g><path d="M 7.914062 0 C 14.628906 0 17.976562 -3.707031 17.976562 -9.777344 L 17.976562 -9.824219 C 17.976562 -15.730469 14.652344 -19.386719 7.914062 -19.386719 L 1.289062 -19.386719 L 1.289062 0 Z M 5.066406 -15.871094 L 7.816406 -15.871094 C 11.929688 -15.871094 14.128906 -13.746094 14.128906 -9.824219 L 14.128906 -9.777344 C 14.128906 -5.6875 11.902344 -3.515625 7.816406 -3.515625 L 5.066406 -3.515625 Z M 5.066406 -15.871094 "/></g></g></g><g fill="#f7ff58" fill-opacity="1"><g transform="translate(112.793081, 250.77757)"><g><path d="M 15.179688 -6.40625 C 15.179688 -11.304688 12.5 -14.269531 8.101562 -14.269531 C 3.753906 -14.269531 0.957031 -11.257812 0.957031 -6.980469 L 0.957031 -6.957031 C 0.957031 -2.605469 3.945312 0.359375 8.558594 0.359375 C 11.234375 0.359375 13.125 -0.476562 14.507812 -1.339844 L 12.859375 -4.277344 C 11.855469 -3.5625 10.398438 -2.964844 8.726562 -2.964844 C 6.644531 -2.964844 5.28125 -4.300781 4.898438 -6.070312 L 15.179688 -6.070312 Z M 8.078125 -11.1875 C 9.921875 -11.1875 11.019531 -9.992188 11.304688 -8.414062 L 4.925781 -8.414062 C 5.28125 -9.992188 6.429688 -11.1875 8.078125 -11.1875 Z M 8.078125 -11.1875 "/></g></g></g><g fill="#f7ff58" fill-opacity="1"><g transform="translate(128.037787, 250.77757)"><g><path d="M 7.003906 0.3125 C 11.089844 0.3125 13.125 -1.171875 13.125 -4.136719 C 13.125 -6.3125 11.6875 -7.648438 8.605469 -8.511719 L 7.625 -8.773438 C 5.976562 -9.25 5.308594 -9.585938 5.308594 -10.277344 C 5.308594 -11.042969 6.121094 -11.304688 7.503906 -11.304688 C 8.675781 -11.304688 10.328125 -11.042969 11.546875 -10.398438 L 12.644531 -13.050781 C 11.234375 -13.792969 9.132812 -14.246094 7.050781 -14.246094 C 3.488281 -14.246094 1.480469 -12.691406 1.480469 -10.160156 C 1.480469 -7.886719 2.773438 -6.550781 5.640625 -5.785156 L 6.933594 -5.449219 C 8.941406 -4.898438 9.394531 -4.589844 9.394531 -3.847656 C 9.394531 -2.84375 8.292969 -2.628906 6.667969 -2.628906 C 5.28125 -2.628906 3.609375 -2.941406 2.007812 -3.632812 L 0.980469 -0.882812 C 2.941406 -0.0703125 4.851562 0.3125 7.003906 0.3125 Z M 7.003906 0.3125 "/></g></g></g><g fill="#f7ff58" fill-opacity="1"><g transform="translate(141.203605, 250.77757)"><g><path d="M 15.179688 -6.40625 C 15.179688 -11.304688 12.5 -14.269531 8.101562 -14.269531 C 3.753906 -14.269531 0.957031 -11.257812 0.957031 -6.980469 L 0.957031 -6.957031 C 0.957031 -2.605469 3.945312 0.359375 8.558594 0.359375 C 11.234375 0.359375 13.125 -0.476562 14.507812 -1.339844 L 12.859375 -4.277344 C 11.855469 -3.5625 10.398438 -2.964844 8.726562 -2.964844 C 6.644531 -2.964844 5.28125 -4.300781 4.898438 -6.070312 L 15.179688 -6.070312 Z M 8.078125 -11.1875 C 9.921875 -11.1875 11.019531 -9.992188 11.304688 -8.414062 L 4.925781 -8.414062 C 5.28125 -9.992188 6.429688 -11.1875 8.078125 -11.1875 Z M 8.078125 -11.1875 "/></g></g></g><g fill="#f7ff58" fill-opacity="1"><g transform="translate(156.448312, 250.77757)"><g><path d="M 5.089844 0 L 5.089844 -10.636719 C 5.976562 -10.78125 6.835938 -10.875 7.503906 -10.875 C 9.273438 -10.875 10.230469 -10.230469 10.230469 -8.511719 L 10.230469 0 L 14.007812 0 L 14.007812 -8.964844 C 14.007812 -13.074219 11.066406 -14.269531 7.671875 -14.269531 C 6.285156 -14.269531 3.585938 -13.960938 1.289062 -13.554688 L 1.289062 0 Z M 5.089844 0 "/></g></g></g><g fill="#f7ff58" fill-opacity="1"><g transform="translate(170.856682, 250.77757)"><g><path d="M 7.578125 -2.675781 L 4.253906 -13.722656 L 0.285156 -13.722656 L 4.972656 0 L 10.183594 0 L 14.867188 -13.722656 L 10.898438 -13.722656 Z M 7.578125 -2.675781 "/></g></g></g><g fill="#f7ff58" fill-opacity="1"><g transform="translate(185.097795, 250.77757)"><g><path d="M 8.582031 0.382812 C 13.074219 0.382812 16.207031 -2.726562 16.207031 -6.957031 L 16.207031 -6.980469 C 16.207031 -11.1875 13.074219 -14.269531 8.582031 -14.269531 C 4.085938 -14.269531 0.980469 -11.1875 0.980469 -6.980469 L 0.980469 -6.957031 C 0.980469 -2.726562 4.113281 0.382812 8.582031 0.382812 Z M 8.582031 -3.011719 C 6.3125 -3.011719 4.78125 -4.734375 4.78125 -6.957031 L 4.78125 -7.003906 C 4.78125 -9.203125 6.285156 -10.875 8.582031 -10.875 C 10.898438 -10.875 12.382812 -9.203125 12.382812 -7.003906 L 12.382812 -6.957031 C 12.382812 -4.734375 10.875 -3.011719 8.582031 -3.011719 Z M 8.582031 -3.011719 "/></g></g></g><g fill="#f7ff58" fill-opacity="1"><g transform="translate(201.346097, 250.77757)"><g><path d="M 5.089844 0 L 5.089844 -19.386719 L 1.289062 -19.386719 L 1.289062 0 Z M 5.089844 0 "/></g></g></g><g fill="#f7ff58" fill-opacity="1"><g transform="translate(206.817651, 250.77757)"><g><path d="M 7.578125 -2.675781 L 4.253906 -13.722656 L 0.285156 -13.722656 L 4.972656 0 L 10.183594 0 L 14.867188 -13.722656 L 10.898438 -13.722656 Z M 7.578125 -2.675781 "/></g></g></g><g fill="#f7ff58" fill-opacity="1"><g transform="translate(221.058764, 250.77757)"><g><path d="M 15.179688 -6.40625 C 15.179688 -11.304688 12.5 -14.269531 8.101562 -14.269531 C 3.753906 -14.269531 0.957031 -11.257812 0.957031 -6.980469 L 0.957031 -6.957031 C 0.957031 -2.605469 3.945312 0.359375 8.558594 0.359375 C 11.234375 0.359375 13.125 -0.476562 14.507812 -1.339844 L 12.859375 -4.277344 C 11.855469 -3.5625 10.398438 -2.964844 8.726562 -2.964844 C 6.644531 -2.964844 5.28125 -4.300781 4.898438 -6.070312 L 15.179688 -6.070312 Z M 8.078125 -11.1875 C 9.921875 -11.1875 11.019531 -9.992188 11.304688 -8.414062 L 4.925781 -8.414062 C 5.28125 -9.992188 6.429688 -11.1875 8.078125 -11.1875 Z M 8.078125 -11.1875 "/></g></g></g><g fill="#f7ff58" fill-opacity="1"><g transform="translate(236.303464, 250.77757)"><g><path d="M 8.582031 0.382812 C 11.140625 0.382812 12.859375 0 14.820312 -0.957031 L 14.820312 -19.386719 L 11.042969 -19.386719 L 11.042969 -13.910156 C 10.207031 -14.101562 9.324219 -14.269531 8.4375 -14.269531 C 3.753906 -14.269531 0.980469 -11.1875 0.980469 -6.980469 L 0.980469 -6.933594 C 0.980469 -2.726562 3.894531 0.382812 8.582031 0.382812 Z M 8.582031 -3.011719 C 6.09375 -3.011719 4.78125 -4.734375 4.78125 -6.933594 L 4.78125 -6.980469 C 4.78125 -9.179688 6.09375 -10.875 8.582031 -10.875 C 9.417969 -10.875 10.300781 -10.683594 11.042969 -10.519531 L 11.042969 -3.324219 C 10.300781 -3.132812 9.488281 -3.011719 8.582031 -3.011719 Z M 8.582031 -3.011719 "/></g></g></g><g fill="#f7ff58" fill-opacity="1"><g transform="translate(251.524275, 250.77757)"><g><path d="M 8.582031 0.382812 C 13.074219 0.382812 16.207031 -2.726562 16.207031 -6.957031 L 16.207031 -6.980469 C 16.207031 -11.1875 13.074219 -14.269531 8.582031 -14.269531 C 4.085938 -14.269531 0.980469 -11.1875 0.980469 -6.980469 L 0.980469 -6.957031 C 0.980469 -2.726562 4.113281 0.382812 8.582031 0.382812 Z M 8.582031 -3.011719 C 6.3125 -3.011719 4.78125 -4.734375 4.78125 -6.957031 L 4.78125 -7.003906 C 4.78125 -9.203125 6.285156 -10.875 8.582031 -10.875 C 10.898438 -10.875 12.382812 -9.203125 12.382812 -7.003906 L 12.382812 -6.957031 C 12.382812 -4.734375 10.875 -3.011719 8.582031 -3.011719 Z M 8.582031 -3.011719 "/></g></g></g><g fill="#f7ff58" fill-opacity="1"><g transform="translate(267.772569, 250.77757)"><g><path d="M 5.089844 0 L 5.089844 -10.039062 C 5.402344 -10.113281 6.957031 -10.230469 7.53125 -10.230469 L 9.585938 -10.230469 L 9.585938 -13.722656 L 6.910156 -13.722656 C 5.664062 -13.722656 3.296875 -13.625 1.289062 -13.195312 L 1.289062 0 Z M 5.089844 0 "/></g></g></g><g fill="#5e565a" fill-opacity="1"><g transform="translate(104.954901, 272.211844)"><g><path d="M 4.410156 0 C 6.347656 0 7.761719 -0.699219 7.761719 -2.640625 L 7.761719 -2.6875 C 7.761719 -3.902344 7.027344 -4.71875 5.753906 -4.914062 C 6.75 -5.167969 7.371094 -5.890625 7.371094 -7.039062 L 7.371094 -7.082031 C 7.371094 -8.542969 6.566406 -9.3125 4.433594 -9.3125 L 0.632812 -9.3125 L 0.632812 0 Z M 2.410156 -7.648438 L 4.226562 -7.648438 C 5.097656 -7.648438 5.578125 -7.359375 5.578125 -6.566406 L 5.578125 -6.519531 C 5.578125 -5.796875 5.050781 -5.453125 4.144531 -5.453125 L 2.410156 -5.453125 Z M 2.410156 -4.085938 L 4.464844 -4.085938 C 5.394531 -4.085938 5.949219 -3.683594 5.949219 -2.960938 L 5.949219 -2.90625 C 5.949219 -2.125 5.453125 -1.675781 4.523438 -1.675781 L 2.410156 -1.675781 Z M 2.410156 -4.085938 "/></g></g></g><g fill="#5e565a" fill-opacity="1"><g transform="translate(112.688252, 272.211844)"><g><path d="M 3.695312 -6.820312 C 2.859375 -6.820312 1.882812 -6.636719 1.390625 -6.441406 L 0.988281 -4.820312 C 1.710938 -5.109375 2.652344 -5.28125 3.304688 -5.28125 C 4.316406 -5.28125 4.890625 -4.984375 4.890625 -4.15625 L 4.890625 -3.914062 C 4.351562 -3.984375 3.878906 -4.007812 3.398438 -4.007812 C 1.597656 -4.007812 0.460938 -3.363281 0.460938 -1.964844 L 0.460938 -1.941406 C 0.460938 -0.390625 1.710938 0.183594 3.730469 0.183594 C 4.628906 0.183594 5.808594 0.0585938 6.714844 -0.136719 L 6.714844 -4.214844 C 6.714844 -6.164062 5.523438 -6.820312 3.695312 -6.820312 Z M 2.332031 -2.054688 C 2.332031 -2.640625 2.882812 -2.847656 3.800781 -2.847656 C 4.085938 -2.847656 4.523438 -2.8125 4.890625 -2.753906 L 4.890625 -1.332031 C 4.511719 -1.273438 4.109375 -1.238281 3.800781 -1.238281 C 2.871094 -1.238281 2.332031 -1.46875 2.332031 -2.03125 Z M 2.332031 -2.054688 "/></g></g></g><g fill="#5e565a" fill-opacity="1"><g transform="translate(119.561034, 272.211844)"><g><path d="M 4.042969 0.171875 C 4.832031 0.171875 5.695312 -0.0234375 6.316406 -0.367188 L 5.601562 -1.722656 C 5.144531 -1.480469 4.671875 -1.34375 4.132812 -1.34375 C 2.960938 -1.34375 2.296875 -2.191406 2.296875 -3.328125 L 2.296875 -3.351562 C 2.296875 -4.5 2.960938 -5.328125 4.132812 -5.328125 C 4.671875 -5.328125 5.15625 -5.179688 5.601562 -4.9375 L 6.328125 -6.292969 C 5.695312 -6.648438 4.832031 -6.855469 4.042969 -6.855469 C 1.871094 -6.855469 0.460938 -5.40625 0.460938 -3.351562 L 0.460938 -3.328125 C 0.460938 -1.261719 1.882812 0.171875 4.042969 0.171875 Z M 4.042969 0.171875 "/></g></g></g><g fill="#5e565a" fill-opacity="1"><g transform="translate(125.722415, 272.211844)"><g><path d="M 2.445312 -3.433594 L 2.445312 -9.3125 L 0.632812 -9.3125 L 0.632812 0 L 2.445312 0 L 2.445312 -3.273438 L 2.503906 -3.351562 Z M 4.535156 -3.375 L 6.878906 -6.589844 L 4.878906 -6.589844 L 2.503906 -3.351562 L 4.855469 0 L 6.992188 0 Z M 4.535156 -3.375 "/></g></g></g><g fill="#5e565a" fill-opacity="1"><g transform="translate(132.411615, 272.211844)"><g><path d="M 7.289062 -3.078125 C 7.289062 -5.429688 6.003906 -6.855469 3.890625 -6.855469 C 1.800781 -6.855469 0.460938 -5.40625 0.460938 -3.351562 L 0.460938 -3.339844 C 0.460938 -1.25 1.894531 0.171875 4.109375 0.171875 C 5.394531 0.171875 6.304688 -0.230469 6.96875 -0.644531 L 6.175781 -2.054688 C 5.695312 -1.710938 4.996094 -1.421875 4.191406 -1.421875 C 3.191406 -1.421875 2.539062 -2.066406 2.355469 -2.917969 L 7.289062 -2.917969 Z M 3.878906 -5.375 C 4.765625 -5.375 5.292969 -4.800781 5.429688 -4.042969 L 2.363281 -4.042969 C 2.539062 -4.800781 3.089844 -5.375 3.878906 -5.375 Z M 3.878906 -5.375 "/></g></g></g><g fill="#5e565a" fill-opacity="1"><g transform="translate(139.731901, 272.211844)"><g><path d="M 2.445312 0 L 2.445312 -5.109375 C 2.871094 -5.179688 3.285156 -5.222656 3.605469 -5.222656 C 4.453125 -5.222656 4.914062 -4.914062 4.914062 -4.085938 L 4.914062 0 L 6.726562 0 L 6.726562 -4.304688 C 6.726562 -6.28125 5.316406 -6.855469 3.683594 -6.855469 C 3.019531 -6.855469 1.722656 -6.707031 0.621094 -6.511719 L 0.621094 0 Z M 2.445312 0 "/></g></g></g><g fill="#5e565a" fill-opacity="1"><g transform="translate(146.650586, 272.211844)"><g><path d="M 4.121094 0.183594 C 5.351562 0.183594 6.175781 0 7.117188 -0.460938 L 7.117188 -9.3125 L 5.304688 -9.3125 L 5.304688 -6.683594 C 4.902344 -6.773438 4.476562 -6.855469 4.054688 -6.855469 C 1.800781 -6.855469 0.472656 -5.375 0.472656 -3.351562 L 0.472656 -3.328125 C 0.472656 -1.308594 1.871094 0.183594 4.121094 0.183594 Z M 4.121094 -1.445312 C 2.929688 -1.445312 2.296875 -2.273438 2.296875 -3.328125 L 2.296875 -3.351562 C 2.296875 -4.410156 2.929688 -5.222656 4.121094 -5.222656 C 4.523438 -5.222656 4.949219 -5.132812 5.304688 -5.050781 L 5.304688 -1.597656 C 4.949219 -1.503906 4.558594 -1.445312 4.121094 -1.445312 Z M 4.121094 -1.445312 "/></g></g></g><g fill="#5e565a" fill-opacity="1"><g transform="translate(153.959399, 272.211844)"><g/></g></g><g fill="#5e565a" fill-opacity="1"><g transform="translate(155.462237, 272.211844)"><g><path d="M 1.539062 1.722656 L 7.761719 -9.3125 L 5.890625 -9.3125 L -0.332031 1.722656 Z M 1.539062 1.722656 "/></g></g></g><g fill="#5e565a" fill-opacity="1"><g transform="translate(162.656308, 272.211844)"><g/></g></g><g fill="#5e565a" fill-opacity="1"><g transform="translate(164.159146, 272.211844)"><g><path d="M 2.421875 0 L 2.421875 -3.960938 L 6.417969 -3.960938 L 6.417969 -5.558594 L 2.421875 -5.558594 L 2.421875 -7.625 L 6.820312 -7.625 L 6.820312 -9.3125 L 0.632812 -9.3125 L 0.632812 0 Z M 2.421875 0 "/></g></g></g><g fill="#5e565a" fill-opacity="1"><g transform="translate(170.928664, 272.211844)"><g><path d="M 2.445312 0 L 2.445312 -4.820312 C 2.59375 -4.855469 3.339844 -4.914062 3.617188 -4.914062 L 4.605469 -4.914062 L 4.605469 -6.589844 L 3.316406 -6.589844 C 2.722656 -6.589844 1.585938 -6.542969 0.621094 -6.335938 L 0.621094 0 Z M 2.445312 0 "/></g></g></g><g fill="#5e565a" fill-opacity="1"><g transform="translate(175.529552, 272.211844)"><g><path d="M 4.121094 0.183594 C 6.28125 0.183594 7.785156 -1.308594 7.785156 -3.339844 L 7.785156 -3.351562 C 7.785156 -5.375 6.28125 -6.855469 4.121094 -6.855469 C 1.964844 -6.855469 0.472656 -5.375 0.472656 -3.351562 L 0.472656 -3.339844 C 0.472656 -1.308594 1.976562 0.183594 4.121094 0.183594 Z M 4.121094 -1.445312 C 3.03125 -1.445312 2.296875 -2.273438 2.296875 -3.339844 L 2.296875 -3.363281 C 2.296875 -4.421875 3.019531 -5.222656 4.121094 -5.222656 C 5.234375 -5.222656 5.949219 -4.421875 5.949219 -3.363281 L 5.949219 -3.339844 C 5.949219 -2.273438 5.222656 -1.445312 4.121094 -1.445312 Z M 4.121094 -1.445312 "/></g></g></g><g fill="#5e565a" fill-opacity="1"><g transform="translate(183.331758, 272.211844)"><g><path d="M 2.445312 0 L 2.445312 -5.109375 C 2.871094 -5.179688 3.285156 -5.222656 3.605469 -5.222656 C 4.453125 -5.222656 4.914062 -4.914062 4.914062 -4.085938 L 4.914062 0 L 6.726562 0 L 6.726562 -4.304688 C 6.726562 -6.28125 5.316406 -6.855469 3.683594 -6.855469 C 3.019531 -6.855469 1.722656 -6.707031 0.621094 -6.511719 L 0.621094 0 Z M 2.445312 0 "/></g></g></g><g fill="#5e565a" fill-opacity="1"><g transform="translate(190.250443, 272.211844)"><g><path d="M 5.660156 0 L 5.660156 -1.6875 L 4.386719 -1.6875 C 3.605469 -1.6875 3.25 -1.984375 3.25 -2.722656 L 3.25 -4.914062 L 5.648438 -4.914062 L 5.648438 -6.589844 L 3.25 -6.589844 L 3.25 -8.609375 L 1.421875 -8.609375 L 1.421875 -6.589844 L 0.265625 -6.589844 L 0.265625 -4.914062 L 1.421875 -4.914062 L 1.421875 -2.148438 C 1.421875 -0.710938 1.996094 0 3.570312 0 Z M 5.660156 0 "/></g></g></g><g fill="#5e565a" fill-opacity="1"><g transform="translate(195.952859, 272.211844)"><g><path d="M 7.289062 -3.078125 C 7.289062 -5.429688 6.003906 -6.855469 3.890625 -6.855469 C 1.800781 -6.855469 0.460938 -5.40625 0.460938 -3.351562 L 0.460938 -3.339844 C 0.460938 -1.25 1.894531 0.171875 4.109375 0.171875 C 5.394531 0.171875 6.304688 -0.230469 6.96875 -0.644531 L 6.175781 -2.054688 C 5.695312 -1.710938 4.996094 -1.421875 4.191406 -1.421875 C 3.191406 -1.421875 2.539062 -2.066406 2.355469 -2.917969 L 7.289062 -2.917969 Z M 3.878906 -5.375 C 4.765625 -5.375 5.292969 -4.800781 5.429688 -4.042969 L 2.363281 -4.042969 C 2.539062 -4.800781 3.089844 -5.375 3.878906 -5.375 Z M 3.878906 -5.375 "/></g></g></g><g fill="#5e565a" fill-opacity="1"><g transform="translate(203.273147, 272.211844)"><g><path d="M 2.445312 0 L 2.445312 -5.109375 C 2.871094 -5.179688 3.285156 -5.222656 3.605469 -5.222656 C 4.453125 -5.222656 4.914062 -4.914062 4.914062 -4.085938 L 4.914062 0 L 6.726562 0 L 6.726562 -4.304688 C 6.726562 -6.28125 5.316406 -6.855469 3.683594 -6.855469 C 3.019531 -6.855469 1.722656 -6.707031 0.621094 -6.511719 L 0.621094 0 Z M 2.445312 0 "/></g></g></g><g fill="#5e565a" fill-opacity="1"><g transform="translate(210.191832, 272.211844)"><g><path d="M 4.121094 0.183594 C 5.351562 0.183594 6.175781 0 7.117188 -0.460938 L 7.117188 -9.3125 L 5.304688 -9.3125 L 5.304688 -6.683594 C 4.902344 -6.773438 4.476562 -6.855469 4.054688 -6.855469 C 1.800781 -6.855469 0.472656 -5.375 0.472656 -3.351562 L 0.472656 -3.328125 C 0.472656 -1.308594 1.871094 0.183594 4.121094 0.183594 Z M 4.121094 -1.445312 C 2.929688 -1.445312 2.296875 -2.273438 2.296875 -3.328125 L 2.296875 -3.351562 C 2.296875 -4.410156 2.929688 -5.222656 4.121094 -5.222656 C 4.523438 -5.222656 4.949219 -5.132812 5.304688 -5.050781 L 5.304688 -1.597656 C 4.949219 -1.503906 4.558594 -1.445312 4.121094 -1.445312 Z M 4.121094 -1.445312 "/></g></g></g><g fill="#5e565a" fill-opacity="1"><g transform="translate(217.500645, 272.211844)"><g/></g></g><g fill="#5e565a" fill-opacity="1"><g transform="translate(219.003483, 272.211844)"><g><path d="M 1.539062 1.722656 L 7.761719 -9.3125 L 5.890625 -9.3125 L -0.332031 1.722656 Z M 1.539062 1.722656 "/></g></g></g><g fill="#5e565a" fill-opacity="1"><g transform="translate(226.197547, 272.211844)"><g/></g></g><g fill="#5e565a" fill-opacity="1"><g transform="translate(227.700378, 272.211844)"><g><path d="M 5.363281 -1.835938 L 3.375 -9.3125 L 0.632812 -9.3125 L 0.632812 0 L 2.421875 0 L 2.421875 -7.773438 L 4.464844 0 L 6.246094 0 L 8.277344 -7.761719 L 8.277344 0 L 10.082031 0 L 10.082031 -9.3125 L 7.335938 -9.3125 Z M 5.363281 -1.835938 "/></g></g></g><g fill="#5e565a" fill-opacity="1"><g transform="translate(237.969541, 272.211844)"><g><path d="M 4.121094 0.183594 C 6.28125 0.183594 7.785156 -1.308594 7.785156 -3.339844 L 7.785156 -3.351562 C 7.785156 -5.375 6.28125 -6.855469 4.121094 -6.855469 C 1.964844 -6.855469 0.472656 -5.375 0.472656 -3.351562 L 0.472656 -3.339844 C 0.472656 -1.308594 1.976562 0.183594 4.121094 0.183594 Z M 4.121094 -1.445312 C 3.03125 -1.445312 2.296875 -2.273438 2.296875 -3.339844 L 2.296875 -3.363281 C 2.296875 -4.421875 3.019531 -5.222656 4.121094 -5.222656 C 5.234375 -5.222656 5.949219 -4.421875 5.949219 -3.363281 L 5.949219 -3.339844 C 5.949219 -2.273438 5.222656 -1.445312 4.121094 -1.445312 Z M 4.121094 -1.445312 "/></g></g></g><g fill="#5e565a" fill-opacity="1"><g transform="translate(245.771739, 272.211844)"><g><path d="M 3.617188 0.183594 C 5.867188 0.183594 7.277344 -1.308594 7.277344 -3.328125 L 7.277344 -3.351562 C 7.277344 -5.375 5.949219 -6.855469 3.695312 -6.855469 C 3.273438 -6.855469 2.847656 -6.773438 2.445312 -6.683594 L 2.445312 -9.3125 L 0.621094 -9.3125 L 0.621094 -0.460938 C 1.5625 0 2.386719 0.183594 3.617188 0.183594 Z M 3.617188 -1.445312 C 3.191406 -1.445312 2.800781 -1.503906 2.445312 -1.597656 L 2.445312 -5.050781 C 2.800781 -5.132812 3.226562 -5.222656 3.617188 -5.222656 C 4.820312 -5.222656 5.441406 -4.410156 5.441406 -3.351562 L 5.441406 -3.328125 C 5.441406 -2.273438 4.820312 -1.445312 3.617188 -1.445312 Z M 3.617188 -1.445312 "/></g></g></g><g fill="#5e565a" fill-opacity="1"><g transform="translate(253.080544, 272.211844)"><g><path d="M 1.527344 -7.453125 C 2.03125 -7.453125 2.433594 -7.703125 2.433594 -8.253906 C 2.433594 -8.75 2.066406 -9.046875 1.527344 -9.046875 C 1 -9.046875 0.621094 -8.75 0.621094 -8.253906 C 0.621094 -7.703125 1.035156 -7.453125 1.527344 -7.453125 Z M 2.445312 0 L 2.445312 -6.589844 L 0.621094 -6.589844 L 0.621094 0 Z M 2.445312 0 "/></g></g></g><g fill="#5e565a" fill-opacity="1"><g transform="translate(255.707854, 272.211844)"><g><path d="M 2.445312 0 L 2.445312 -9.3125 L 0.621094 -9.3125 L 0.621094 0 Z M 2.445312 0 "/></g></g></g><g fill="#5e565a" fill-opacity="1"><g transform="translate(258.335164, 272.211844)"><g><path d="M 7.289062 -3.078125 C 7.289062 -5.429688 6.003906 -6.855469 3.890625 -6.855469 C 1.800781 -6.855469 0.460938 -5.40625 0.460938 -3.351562 L 0.460938 -3.339844 C 0.460938 -1.25 1.894531 0.171875 4.109375 0.171875 C 5.394531 0.171875 6.304688 -0.230469 6.96875 -0.644531 L 6.175781 -2.054688 C 5.695312 -1.710938 4.996094 -1.421875 4.191406 -1.421875 C 3.191406 -1.421875 2.539062 -2.066406 2.355469 -2.917969 L 7.289062 -2.917969 Z M 3.878906 -5.375 C 4.765625 -5.375 5.292969 -4.800781 5.429688 -4.042969 L 2.363281 -4.042969 C 2.539062 -4.800781 3.089844 -5.375 3.878906 -5.375 Z M 3.878906 -5.375 "/></g></g></g><g fill="#5e565a" fill-opacity="1"><g transform="translate(265.653715, 272.211844)"><g/></g></g></svg>